<svg xmlns="http://www.w3.org/2000/svg" viewBox="0 0 100 43" width="100" height="43" role="img" aria-label="文档"><defs><style>.c{font-family:"Microsoft YaHei UI","PingFang SC","Noto Sans SC","Microsoft YaHei",sans-serif;font-weight:700}</style></defs><rect x="1" y="5" width="98" height="36" fill="#2e2b27" stroke="#171513" stroke-width="2"/><rect x="1" y="1" width="98" height="36" fill="#4d4841" stroke="#171513" stroke-width="2"/><path d="M3 35V3H97" fill="none" stroke="#5d574f" stroke-width="2"/><text class="c" x="15" y="24.0" font-size="14" fill="#ebe4d2">文档</text><g opacity=".78"><g transform="translate(51.00 23.80) scale(0.01238 -0.01238)" fill="#ebe4d2"><path transform="translate(0)" d="M342 190H380V570H342V608H190V152H342ZM38 760H418V722H494V646H532V114H494V38H418V0H38Z"/><path transform="translate(705)" d="M228 152H342V190H380V570H342V608H228V570H190V190H228ZM38 646H76V722H152V760H418V722H494V646H532V114H494V38H418V0H152V38H76V114H38Z"/><path transform="translate(1410)" d="M228 152H342V190H380V266H532V114H494V38H418V0H152V38H76V114H38V646H76V722H152V760H418V722H494V646H532V494H380V570H342V608H228V570H190V190H228Z"/><path transform="translate(2115)" d="M38 228H190V190H228V152H380V190H418V266H380V304H152V342H76V418H38V646H76V722H152V760H456V722H532V646H570V532H418V570H380V608H228V570H190V494H228V456H456V418H532V342H570V114H532V38H456V0H152V38H76V114H38Z"/></g></g></svg>