<svg xmlns="http://www.w3.org/2000/svg" viewBox="0 0 860 46" width="860" role="img" aria-label="衍生项目 · RELATED"><defs><style>.c{font-family:"Microsoft YaHei UI","PingFang SC","Noto Sans SC","Microsoft YaHei",sans-serif;font-weight:700}</style><pattern id="vent" width="6" height="20" patternUnits="userSpaceOnUse"><rect width="2" height="20" fill="#1d1b18"/></pattern></defs><rect x="1" y="5" width="858" height="40" fill="#1d1b18"/><rect x="1" y="1" width="858" height="40" fill="#2f2c28" stroke="#171513" stroke-width="2"/><path d="M4 39V4H856" fill="none" stroke="#4a453f" stroke-width="2"/><path d="M856 4V38H4" fill="none" stroke="#2a2723" stroke-width="2"/><rect x="2" y="2" width="113" height="38" fill="#ebe4d2"/><g transform="translate(16.00 28.00) scale(0.01625 -0.01625)" fill="#2f2c28"><path transform="translate(0)" d="M190 380H342V418H380V570H342V608H190ZM304 228H190V0H38V760H418V722H494V646H532V342H494V304H456V266H494V228H532V0H380V152H342V190H304Z"/><path transform="translate(793)" d="M190 152H494V0H38V760H494V608H190V456H418V304H190Z"/><path transform="translate(1547)" d="M190 152H418V0H38V760H190Z"/><path transform="translate(2226)" d="M190 342H380V494H342V532H304V570H266V532H228V494H190ZM380 190H190V0H38V570H76V608H114V646H152V684H190V722H228V760H342V722H380V684H418V646H456V608H494V570H532V0H380Z"/><path transform="translate(3018)" d="M38 760H494V608H342V0H190V608H38Z"/><path transform="translate(3773)" d="M190 152H494V0H38V760H494V608H190V456H418V304H190Z"/><path transform="translate(4527)" d="M342 190H380V570H342V608H190V152H342ZM38 760H418V722H494V646H532V114H494V38H418V0H38Z"/></g><text class="c" x="127" y="27" font-size="16" fill="#ebe4d2">衍生项目</text><rect x="207" y="11" width="609" height="20" fill="url(#vent)" opacity=".85"/><rect x="832" y="15" width="11" height="11" fill="#f08a5d" stroke="#171513" stroke-width="1.2"/></svg>